#!OML:ASF I:\Actors\actors\Patient Classification 2\Patient 1\Session 1\actor1.ASF
:FULLY-SPECIFIED
:DEGREES
141
root -0.576639 18.7064 5.45571 1.6445 -3.80873 -1.6281
lowerback 2.98734 -0.0682457 -2.80106
upperback -1.1121 -0.174992 1.1756
thorax -2.80831 -0.0262079 2.79215
lowerneck -14.0343 -0.781621 0.257038
upperneck 12.4874 -1.73822 4.06556
head 6.13084 -0.501372 1.09079
rclavicle -3.13241e-015 -1.35174e-014
rhumerus -10.8053 36.2395 -83.8283
rradius 83.1149
rwrist -0.410053
rhand -28.9461 -41.6138
rfingers 7.12502
rthumb -2.29969 -71.5811
lclavicle -3.13241e-015 -1.35174e-014
lhumerus 33.1319 -12.3105 67.1312
lradius 71.0683
lwrist 18.2109
lhand -26.9755 -69.8385
lfingers 7.12502
lthumb -0.396391 -39.8591
rfemur 0 0 0
rtibia 0
rfoot 0 0
rtoes 0
lfemur -3.97132 -4.53307 -13.1189
ltibia 21.2938
lfoot -24.3874 17.6384
ltoes -54.0389
142
root -0.571346 18.7057 5.45736 1.63972 -3.9705 -1.59668
lowerback 3.11958 -0.101623 -2.92703
upperback -1.13818 -0.225731 1.27743
thorax -2.90577 -0.046218 2.97211
lowerneck -14.3889 -0.663207 0.332579
upperneck 12.3542 -1.56186 3.86016
head 6.14219 -0.426994 1.0289
rclavicle -1.30647e-015 1.08338e-014
rhumerus -7.39546 36.4975 -81.9104
rradius 83.7913
rwrist 0.169517
rhand -29.184 -41.5723
rfingers 7.12502
rthumb -2.5294 -71.537
lclavicle -1.30647e-015 1.08338e-014
lhumerus 35.0336 -11.6057 66.7444
lradius 69.795
lwrist 18.699
lhand -27.424 -70.9861
lfingers 7.12502
lthumb -0.829564 -41.0079
rfemur 0 0 0
rtibia 0
rfoot 0 0
rtoes 0
lfemur -3.9248 -4.34372 -13.1907
ltibia 21.2834
lfoot -24.3168 17.7398
ltoes -54.1842
143
root -0.565436 18.7057 5.45983 1.6537 -4.07168 -1.53483
lowerback 3.04005 -0.162229 -3.0374
upperback -1.03629 -0.30682 1.34018
thorax -2.74921 -0.0884072 3.10253
lowerneck -14.8718 -0.555873 0.344859
upperneck 12.1875 -1.4119 3.80641
head 6.16706 -0.355382 1.0234
rclavicle 1.52963e-014 1.76173e-014
rhumerus -3.70091 36.525 -79.8862
rradius 84.478
rwrist 0.516679
rhand -29.6425 -41.4522
rfingers 7.12502
rthumb -2.97218 -71.4112
lclavicle 1.52963e-014 1.76173e-014
lhumerus 36.8546 -10.9442 66.3455
lradius 68.7089
lwrist 19.371
lhand -27.7168 -71.8596
lfingers 7.12502
lthumb -1.11235 -41.8828
rfemur 0 0 0
rtibia 0
rfoot 0 0
rtoes 0
lfemur -3.90808 -4.20383 -13.289
ltibia 21.2668
lfoot -24.2358 17.8034
ltoes -54.3537
144
root -0.559761 18.7064 5.46384 1.67076 -4.16457 -1.52583
lowerback 2.85451 -0.221095 -3.04146
upperback -0.870088 -0.378453 1.38006
thorax -2.46759 -0.131427 3.14718
lowerneck -15.3146 -0.450473 0.374373
upperneck 11.9202 -1.27337 3.81201
head 6.15364 -0.285741 1.03305
rclavicle -5.47396e-015 6.08778e-015
rhumerus 0.0833402 36.3477 -77.8279
rradius 85.1955
rwrist 0.600236
rhand -30.2754 -41.48
rfingers 7.12502
rthumb -3.58342 -71.4297
lclavicle -5.47396e-015 6.08778e-015
lhumerus 38.534 -10.3845 65.9622
lradius 67.734
lwrist 19.9418
lhand -27.8829 -72.6429
lfingers 7.12502
lthumb -1.27277 -42.667
rfemur 0 0 0
rtibia 0
rfoot 0 0
rtoes 0
lfemur -3.88398 -4.1203 -13.3214
ltibia 21.2533
lfoot -24.2381 17.8169
ltoes -54.3811
145
root -0.55275 18.7074 5.46851 1.66853 -4.25177 -1.53738
lowerback 3.01442 -0.240047 -3.0273
upperback -0.90922 -0.406099 1.44937
thorax -2.59548 -0.141931 3.21395
lowerneck -15.5962 -0.388957 0.384499
upperneck 11.7312 -1.1867 3.79158
head 6.13872 -0.244845 1.03291
rclavicle 9.20767e-015 8.63471e-015
rhumerus 3.49421 36.0778 -75.8714
rradius 86.0074
rwrist 0.679307
rhand -30.7863 -41.62
rfingers 7.12502
rthumb -4.07681 -71.5608
lclavicle 9.20767e-015 8.63471e-015
lhumerus 39.7055 -10.0759 65.766
lradius 66.9776
lwrist 20.2824
lhand -27.9955 -73.326
lfingers 7.12502
lthumb -1.3816 -43.3507
rfemur 0 0 0
rtibia 0
rfoot 0 0
rtoes 0
lfemur -3.83534 -4.21807 -13.3463
ltibia 21.2468
lfoot -24.4051 17.8715
ltoes -54.1722
146
root -0.544349 18.7087 5.47325 1.67293 -4.32191 -1.5293
lowerback 3.46293 -0.238806 -3.05268
upperback -1.13621 -0.416228 1.54154
thorax -3.08117 -0.133051 3.33031
lowerneck -15.8288 -0.362748 0.347843
upperneck 11.7191 -1.14355 3.77347
head 6.17286 -0.224803 1.03753
rclavicle -7.28592e-015 6.26172e-015
rhumerus 6.11665 35.5731 -74.3883
rradius 87.1636
rwrist 1.10265
rhand -31.0055 -41.2926
rfingers 7.12502
rthumb -4.28849 -71.2292
lclavicle -7.28592e-015 6.26172e-015
lhumerus 40.3647 -9.97089 65.6274
lradius 66.5746
lwrist 20.3878
lhand -28.1912 -74.0822
lfingers 7.12502
lthumb -1.57054 -44.1082
rfemur 0 0 0
rtibia 0
rfoot 0 0
rtoes 0
lfemur -3.80323 -4.34952 -13.394
ltibia 21.2456
lfoot -24.6102 17.8941
ltoes -53.8488
147
root -0.536514 18.7093 5.47913 1.68057 -4.38746 -1.49302
lowerback 3.57479 -0.248155 -3.08845
upperback -1.1556 -0.431992 1.59259
thorax -3.16257 -0.13781 3.40574
lowerneck -16.1234 -0.317431 0.335323
upperneck 11.5251 -1.08206 3.80742
head 6.15927 -0.192572 1.05621
rclavicle -1.65069e-014 -5.51627e-015
rhumerus 9.07685 34.9319 -72.8117
rradius 88.3617
rwrist 1.49801
rhand -31.4514 -40.8122
rfingers 7.12502
rthumb -4.71904 -70.7396
lclavicle -1.65069e-014 -5.51627e-015
lhumerus 41.1781 -9.837 65.4028
lradius 66.2527
lwrist 20.2398
lhand -28.4513 -74.8327
lfingers 7.12502
lthumb -1.82174 -44.8608
rfemur 0 0 0
rtibia 0
rfoot 0 0
rtoes 0
lfemur -3.80554 -4.31799 -13.4642
ltibia 21.2926
lfoot -24.6899 17.8597
ltoes -53.6913
148
root -0.529278 18.709 5.48651 1.66734 -4.40966 -1.43703
lowerback 3.73759 -0.267195 -3.35912
upperback -1.16207 -0.469183 1.7948
thorax -3.25533 -0.146789 3.77307
lowerneck -16.4558 -0.276802 0.270045
upperneck 11.2889 -0.985999 3.65815
head 6.13618 -0.161379 1.02824
rclavicle 1.02995e-014 -1.88845e-015
rhumerus 12.1113 34.3309 -70.9204
rradius 89.6988
rwrist 1.85114
rhand -32.0984 -40.7797
rfingers 7.12502
rthumb -5.34373 -70.6923
lclavicle 1.02995e-014 -1.88845e-015
lhumerus 41.9459 -9.5751 65.628
lradius 65.8035
lwrist 19.9216
lhand -28.616 -75.3552
lfingers 7.12502
lthumb -1.98085 -45.3846
rfemur 0 0 0
rtibia 0
rfoot 0 0
rtoes 0
lfemur -3.85771 -4.19246 -13.5453
ltibia 21.4631
lfoot -24.7271 17.741
ltoes -53.692
149
root -0.514789 18.7074 5.49165 1.58774 -4.31059 -1.63464
lowerback 3.68774 -0.352663 -3.14711
upperback -0.876455 -0.56557 1.97083
thorax -2.923 -0.209066 3.83868
lowerneck -16.9685 -0.203511 0.318123
upperneck 10.853 -0.858781 3.44448
head 6.07759 -0.116432 0.964185
rclavicle 1.13991e-015 7.95139e-015
rhumerus 15.5429 33.4106 -68.9783
rradius 91.0934
rwrist 2.44274
rhand -32.7158 -41.1812
rfingers 7.12502
rthumb -5.93987 -71.0779
lclavicle 1.13991e-015 7.95139e-015
lhumerus 42.9922 -9.13257 65.6824
lradius 65.5202
lwrist 19.9549
lhand -28.5146 -75.6255
lfingers 7.12502
lthumb -1.88295 -45.6541
rfemur 0 0 0
rtibia 0
rfoot 0 0
rtoes 0
lfemur -3.85023 -4.00662 -13.3437
ltibia 21.6547
lfoot -24.6646 17.4621
ltoes -53.7379
150
root -0.484946 18.7039 5.49057 1.41055 -4.10949 -2.29903
lowerback 3.88511 -0.440468 -1.95474
upperback -0.575093 -0.627882 2.02997
thorax -2.72758 -0.267356 3.22903
lowerneck -17.5143 -0.158317 0.428014
upperneck 10.4563 -0.816359 3.42584
head 6.03935 -0.0930743 0.94454
rclavicle -4.79568e-015 1.39149e-014
rhumerus 18.564 32.1548 -67.6664
rradius 92.578
rwrist 3.21233
rhand -33.2509 -41.2945
rfingers 7.12502
rthumb -6.45647 -71.176
lclavicle -4.79568e-015 1.39149e-014
lhumerus 44.0506 -8.92328 65.5409
lradius 65.3479
lwrist 20.2157
lhand -28.4047 -75.8598
lfingers 7.12502
lthumb -1.77675 -45.8875
rfemur 0 0 0
rtibia 0
rfoot 0 0
rtoes 0
lfemur -3.66999 -3.92704 -12.6791
ltibia 21.7567
lfoot -24.5259 17.2051
ltoes -53.7969
151
root -0.477308 18.7057 5.49556 1.41738 -4.03044 -2.40069
lowerback 4.03165 -0.433368 -1.66832
upperback -0.529779 -0.607346 1.97811
thorax -2.76788 -0.261872 3.01386
lowerneck -17.9517 -0.157458 0.488713
upperneck 10.2834 -0.846006 3.52701
head 6.05664 -0.0947566 0.964584
rclavicle 7.92964e-015 6.75868e-015
rhumerus 20.8752 30.9944 -66.8286
rradius 94.2202
rwrist 3.89529
rhand -33.6373 -40.9369
rfingers 7.12502
rthumb -6.82941 -70.8068
lclavicle 7.92964e-015 6.75868e-015
lhumerus 44.8149 -8.98491 65.4994
lradius 65.1877
lwrist 20.5334
lhand -28.4819 -76.0988
lfingers 7.12502
lthumb -1.85133 -46.1271
rfemur 0 0 0
rtibia 0
rfoot 0 0
rtoes 0
lfemur -3.7044 -3.98627 -12.5853
ltibia 21.8064
lfoot -24.4718 17.1617
ltoes -53.7215
152
root -0.492507 18.7125 5.50772 1.6443 -4.05608 -1.71582
lowerback 3.91545 -0.372306 -2.61877
upperback -0.65959 -0.575073 1.82598
thorax -2.83176 -0.229091 3.39076
lowerneck -18.2602 -0.154234 0.509431
upperneck 10.2123 -0.864196 3.62698
head 6.08521 -0.0923259 0.991982
rclavicle -1.12438e-014 -5.1684e-015
rhumerus 22.7854 29.8839 -66.1732
rradius 95.88
rwrist 5.19654
rhand -33.6567 -40.7946
rfingers 7.12502
rthumb -6.8482 -70.6639
lclavicle -1.12438e-014 -5.1684e-015
lhumerus 45.2403 -9.14982 65.3412
lradius 65.2502
lwrist 21.0508
lhand -28.518 -76.0291
lfingers 7.12502
lthumb -1.88621 -46.0577
rfemur 0 0 0
rtibia 0
rfoot 0 0
rtoes 0
lfemur -4.009 -3.94582 -13.2783
ltibia 21.7868
lfoot -24.3718 17.2045
ltoes -53.6421
153
root -0.495438 18.7155 5.51719 1.75657 -3.97954 -1.43281
lowerback 3.96545 -0.353296 -2.9168
upperback -0.761708 -0.568812 1.71801
thorax -2.96446 -0.217848 3.4484
lowerneck -18.4782 -0.180135 0.51854
upperneck 10.0928 -0.915225 3.72527
head 6.08401 -0.10799 1.0169
rclavicle 4.3422e-015 -1.27222e-014
rhumerus 24.5064 28.603 -65.8933
rradius 97.4586
rwrist 7.10948
rhand -33.3467 -40.7531
rfingers 7.12502
rthumb -6.54893 -70.6318
lclavicle 4.3422e-015 -1.27222e-014
lhumerus 45.5041 -9.3415 65.0246
lradius 65.5113
lwrist 21.6229
lhand -28.5502 -75.955
lfingers 7.12502
lthumb -1.91733 -45.9838
rfemur 0 0 0
rtibia 0
rfoot 0 0
rtoes 0
lfemur -4.11511 -3.84994 -13.562
ltibia 21.6672
lfoot -24.1663 17.1522
ltoes -53.7088
154
root -0.492045 18.7165 5.52615 1.79427 -3.83728 -1.42246
lowerback 4.08149 -0.35429 -2.83542
upperback -0.780843 -0.57026 1.66629
thorax -3.05057 -0.218529 3.35051
lowerneck -18.8451 -0.239955 0.559516
upperneck 9.99717 -1.00979 3.73075
head 6.1144 -0.149319 1.00274
rclavicle -1.29303e-014 -2.48481e-015
rhumerus 26.1704 27.3847 -65.8051
rradius 99.0623
rwrist 8.80596
rhand -33.4176 -40.4146
rfingers 7.12502
rthumb -6.61739 -70.2912
lclavicle -1.29303e-014 -2.48481e-015
lhumerus 45.7962 -9.46181 64.7929
lradius 65.7386
lwrist 22.1041
lhand -28.6847 -76.092
lfingers 7.12502
lthumb -2.04724 -46.1221
rfemur 0 0 0
rtibia 0
rfoot 0 0
rtoes 0
lfemur -4.11441 -3.85278 -13.573
ltibia 21.5495
lfoot -24.0155 17.0782
ltoes -53.7671
155
root -0.48808 18.7178 5.53345 1.8358 -3.65194 -1.43744
lowerback 4.51842 -0.332162 -2.58972
upperback -1.01632 -0.541509 1.53813
thorax -3.54572 -0.198008 3.08459
lowerneck -19.1415 -0.341695 0.621126
upperneck 10.083 -1.17448 3.75577
head 6.19291 -0.21979 0.984319
rclavicle -9.96098e-015 1.39149e-015
rhumerus 26.6066 26.2864 -66.2726
rradius 100.799
rwrist 10.4992
rhand -34.1425 -39.625
rfingers 7.12502
rthumb -7.31708 -69.4785
lclavicle -9.96098e-015 1.39149e-015
lhumerus 45.8884 -9.81084 64.8443
lradius 65.7419
lwrist 22.286
lhand -28.7409 -76.1838
lfingers 7.12502
lthumb -2.10148 -46.2144
rfemur 0 0 0
rtibia 0
rfoot 0 0
rtoes 0
lfemur -4.18687 -3.85163 -13.5455
ltibia 21.5494
lfoot -23.9068 16.9961
ltoes -53.8925
156
root -0.484662 18.7193 5.53821 1.90974 -3.41598 -1.45468
lowerback 4.39249 -0.384918 -2.62467
upperback -0.917412 -0.609291 1.59097
thorax -3.36653 -0.234982 3.16143
lowerneck -19.2703 -0.354937 0.624219
upperneck 9.70951 -1.16486 3.64115
head 6.09209 -0.229539 0.94705
rclavicle -4.55031e-015 4.77083e-015
rhumerus 26.9715 25.2625 -66.7305
rradius 102.424
rwrist 12.2291
rhand -34.9466 -38.6114
rfingers 7.12502
rthumb -8.09326 -68.4364
lclavicle -4.55031e-015 4.77083e-015
lhumerus 46.2703 -9.74413 65.0921
lradius 65.6793
lwrist 22.1974
lhand -28.6372 -76.299
lfingers 7.12502
lthumb -2.00133 -46.3286
rfemur 0 0 0
rtibia 0
rfoot 0 0
rtoes 0
lfemur -4.33544 -3.87325 -13.5036
ltibia 21.5989
lfoot -23.8174 16.8724
ltoes -53.9487
